<svg xmlns="http://www.w3.org/2000/svg" style="display:none" aria-hidden="true">
  <symbol id="i-check" viewBox="0 0 24 24"><polyline points="20 6 9 17 4 12"/></symbol>
  <symbol id="i-chevron-right" viewBox="0 0 24 24"><polyline points="9 18 15 12 9 6"/></symbol>
  <symbol id="i-chevron-down" viewBox="0 0 24 24"><polyline points="6 9 12 15 18 9"/></symbol>
  <symbol id="i-plus" viewBox="0 0 24 24"><line x1="12" y1="5" x2="12" y2="19"/><line x1="5" y1="12" x2="19" y2="12"/></symbol>
  <symbol id="i-minus" viewBox="0 0 24 24"><line x1="5" y1="12" x2="19" y2="12"/></symbol>
  <symbol id="i-grip-vertical" viewBox="0 0 24 24" fill="currentColor"><circle cx="9" cy="5" r="1.3"/><circle cx="9" cy="12" r="1.3"/><circle cx="9" cy="19" r="1.3"/><circle cx="15" cy="5" r="1.3"/><circle cx="15" cy="12" r="1.3"/><circle cx="15" cy="19" r="1.3"/></symbol>
  <symbol id="i-x" viewBox="0 0 24 24"><line x1="18" y1="6" x2="6" y2="18"/><line x1="6" y1="6" x2="18" y2="18"/></symbol>
  <symbol id="i-arrow-down" viewBox="0 0 24 24"><path d="M12 5v14"/><path d="m19 12-7 7-7-7"/></symbol>
  <symbol id="i-package" viewBox="0 0 24 24"><path d="m7.5 4.27 9 5.15"/><path d="M21 8a2 2 0 0 0-1-1.73l-7-4a2 2 0 0 0-2 0l-7 4A2 2 0 0 0 3 8v8a2 2 0 0 0 1 1.73l7 4a2 2 0 0 0 2 0l7-4A2 2 0 0 0 21 16Z"/><path d="m3.3 7 8.7 5 8.7-5"/><path d="M12 22V12"/></symbol>
  <symbol id="i-tag" viewBox="0 0 24 24"><path d="M12.586 2.586A2 2 0 0 0 11.172 2H4a2 2 0 0 0-2 2v7.172a2 2 0 0 0 .586 1.414l8.704 8.704a2.426 2.426 0 0 0 3.42 0l6.58-6.58a2.426 2.426 0 0 0 0-3.42z"/><circle cx="7.5" cy="7.5" r=".5" fill="currentColor"/></symbol>
  <symbol id="i-user-plus" viewBox="0 0 24 24"><path d="M16 21v-2a4 4 0 0 0-4-4H6a4 4 0 0 0-4 4v2"/><circle cx="9" cy="7" r="4"/><line x1="19" y1="8" x2="19" y2="14"/><line x1="22" y1="11" x2="16" y2="11"/></symbol>
  <symbol id="i-users" viewBox="0 0 24 24"><path d="M16 21v-2a4 4 0 0 0-4-4H6a4 4 0 0 0-4 4v2"/><circle cx="9" cy="7" r="4"/><path d="M22 21v-2a4 4 0 0 0-3-3.87"/><path d="M16 3.13a4 4 0 0 1 0 7.75"/></symbol>
  <symbol id="i-trash" viewBox="0 0 24 24"><path d="M3 6h18"/><path d="M19 6v14c0 1-1 2-2 2H7c-1 0-2-1-2-2V6"/><path d="M8 6V4c0-1 1-2 2-2h4c1 0 2 1 2 2v2"/></symbol>
  <symbol id="i-user" viewBox="0 0 24 24"><path d="M19 21v-2a4 4 0 0 0-4-4H9a4 4 0 0 0-4 4v2"/><circle cx="12" cy="7" r="4"/></symbol>
  <symbol id="i-wifi-off" viewBox="0 0 24 24"><line x1="2" x2="22" y1="2" y2="22"/><path d="M8.5 16.5a5 5 0 0 1 7 0"/><path d="M2 8.82a15 15 0 0 1 4.17-2.65"/><path d="M10.66 5c4.01-.36 8.14.9 11.34 3.76"/><path d="M16.85 11.25a10 10 0 0 1 2.22 1.68"/><path d="M5 12.86a10 10 0 0 1 5.17-2.86"/><line x1="12" x2="12.01" y1="20" y2="20"/></symbol>
  <symbol id="i-nav-dashboard" viewBox="0 0 24 24"><rect width="7" height="9" x="3" y="3" rx="1"/><rect width="7" height="5" x="14" y="3" rx="1"/><rect width="7" height="9" x="14" y="12" rx="1"/><rect width="7" height="5" x="3" y="16" rx="1"/></symbol>
  <symbol id="i-nav-history" viewBox="0 0 24 24"><path d="M8 2v4"/><path d="M16 2v4"/><rect width="18" height="18" x="3" y="4" rx="2"/><path d="M3 10h18"/></symbol>
  <symbol id="i-nav-inventory" viewBox="0 0 24 24"><path d="m7.5 4.27 9 5.15"/><path d="M21 8a2 2 0 0 0-1-1.73l-7-4a2 2 0 0 0-2 0l-7 4A2 2 0 0 0 3 8v8a2 2 0 0 0 1 1.73l7 4a2 2 0 0 0 2 0l7-4A2 2 0 0 0 21 16Z"/><path d="m3.3 7 8.7 5 8.7-5"/><path d="M12 22V12"/></symbol>
  <symbol id="i-nav-settings" viewBox="0 0 24 24"><path d="M12.22 2h-.44a2 2 0 0 0-2 2v.18a2 2 0 0 1-1 1.73l-.43.25a2 2 0 0 1-2 0l-.15-.08a2 2 0 0 0-2.73.73l-.22.38a2 2 0 0 0 .73 2.73l.15.1a2 2 0 0 1 1 1.72v.51a2 2 0 0 1-1 1.74l-.15.09a2 2 0 0 0-.73 2.73l.22.38a2 2 0 0 0 2.73.73l.15-.08a2 2 0 0 1 2 0l.43.25a2 2 0 0 1 1 1.73V20a2 2 0 0 0 2 2h.44a2 2 0 0 0 2-2v-.18a2 2 0 0 1 1-1.73l.43-.25a2 2 0 0 1 2 0l.15.08a2 2 0 0 0 2.73-.73l.22-.39a2 2 0 0 0-.73-2.73l-.15-.08a2 2 0 0 1-1-1.74v-.5a2 2 0 0 1 1-1.74l.15-.09a2 2 0 0 0 .73-2.73l-.22-.38a2 2 0 0 0-2.73-.73l-.15.08a2 2 0 0 1-2 0l-.43-.25a2 2 0 0 1-1-1.73V4a2 2 0 0 0-2-2z"/><circle cx="12" cy="12" r="3"/></symbol>
  <symbol id="i-clock" viewBox="0 0 24 24"><circle cx="12" cy="12" r="10"/><polyline points="12 6 12 12 16 14"/></symbol>
  <symbol id="i-calendar" viewBox="0 0 24 24"><rect width="18" height="18" x="3" y="4" rx="2" ry="2"/><line x1="16" x2="16" y1="2" y2="6"/><line x1="8" x2="8" y1="2" y2="6"/><line x1="3" x2="21" y1="10" y2="10"/></symbol>
  <symbol id="i-upload-cloud" viewBox="0 0 24 24"><path d="M4 14.9A7 7 0 1 1 15.71 8h1.79a4.5 4.5 0 0 1 2.5 8.24"/><path d="M12 12v9"/><path d="m16 16-4-4-4 4"/></symbol>
  <symbol id="i-alert-triangle" viewBox="0 0 24 24"><path d="m21.73 18-8-14a2 2 0 0 0-3.48 0l-8 14A2 2 0 0 0 4 21h16a2 2 0 0 0 1.73-3Z"/><line x1="12" x2="12" y1="9" y2="13"/><line x1="12" x2="12.01" y1="17" y2="17"/></symbol>
  <symbol id="i-git-merge" viewBox="0 0 24 24"><circle cx="18" cy="18" r="3"/><circle cx="6" cy="6" r="3"/><path d="M6 21V9a9 9 0 0 0 9 9"/></symbol>
  <symbol id="i-chevron-up" viewBox="0 0 24 24"><polyline points="18 15 12 9 6 15"/></symbol>
  <symbol id="i-chevron-left" viewBox="0 0 24 24"><polyline points="15 18 9 12 15 6"/></symbol>
  <symbol id="i-edit" viewBox="0 0 24 24"><path d="M12 20h9"/><path d="M16.5 3.5a2.121 2.121 0 0 1 3 3L7 19l-4 1 1-4Z"/></symbol>
  <symbol id="i-pencil" viewBox="0 0 24 24"><path d="M21.174 6.812a1 1 0 0 0-3.986-3.987L3.842 16.174a2 2 0 0 0-.5.83l-1.321 4.352a.5.5 0 0 0 .623.622l4.353-1.32a2 2 0 0 0 .83-.497z"/><path d="m15 5 4 4"/></symbol>
  <symbol id="i-notebook-pen" viewBox="0 0 24 24"><path d="M13.4 2H6a2 2 0 0 0-2 2v16a2 2 0 0 0 2 2h12a2 2 0 0 0 2-2v-7.4"/><path d="M2 6h4"/><path d="M2 10h4"/><path d="M2 14h4"/><path d="M2 18h4"/><path d="M21.378 5.626a1 1 0 1 0-3.004-3.004l-5.01 5.012a2 2 0 0 0-.506.854l-.837 2.87a.5.5 0 0 0 .62.62l2.87-.837a2 2 0 0 0 .854-.506z"/></symbol>
  <symbol id="i-badge" viewBox="0 0 24 24"><path d="M3.85 8.62a4 4 0 0 1 4.78-4.77 4 4 0 0 1 6.74 0 4 4 0 0 1 4.78 4.78 4 4 0 0 1 0 6.74 4 4 0 0 1-4.77 4.78 4 4 0 0 1-6.75 0 4 4 0 0 1-4.78-4.77 4 4 0 0 1 0-6.76Z"/></symbol>
  <symbol id="i-badge-check" viewBox="0 0 24 24"><path d="M3.85 8.62a4 4 0 0 1 4.78-4.77 4 4 0 0 1 6.74 0 4 4 0 0 1 4.78 4.78 4 4 0 0 1 0 6.74 4 4 0 0 1-4.77 4.78 4 4 0 0 1-6.75 0 4 4 0 0 1-4.78-4.77 4 4 0 0 1 0-6.76Z"/><path d="m9 12 2 2 4-4"/></symbol>
  <symbol id="i-badge-alert" viewBox="0 0 24 24"><path d="M3.85 8.62a4 4 0 0 1 4.78-4.77 4 4 0 0 1 6.74 0 4 4 0 0 1 4.78 4.78 4 4 0 0 1 0 6.74 4 4 0 0 1-4.77 4.78 4 4 0 0 1-6.75 0 4 4 0 0 1-4.78-4.77 4 4 0 0 1 0-6.76Z"/><line x1="12" x2="12" y1="8" y2="12"/><line x1="12" x2="12.01" y1="16" y2="16"/></symbol>
  <symbol id="i-pause" viewBox="0 0 24 24"><rect width="4" height="16" x="6" y="4" rx="1"/><rect width="4" height="16" x="14" y="4" rx="1"/></symbol>
  <symbol id="i-play" viewBox="0 0 24 24"><polygon points="6 3 20 12 6 21 6 3"/></symbol>
  <symbol id="i-history" viewBox="0 0 24 24"><path d="M3 12a9 9 0 1 0 9-9 9.75 9.75 0 0 0-6.74 2.74L3 8"/><path d="M3 3v5h5"/><path d="M12 7v5l4 2"/></symbol>
  <symbol id="i-user-key" viewBox="0 0 24 24"><path d="M2 21a8 8 0 0 1 10.821-7.487"/><path d="m15.5 15.5 4 4"/><path d="M21.378 16.626a1 1 0 1 0-3.004-3.004l-4.01 4.012a2 2 0 0 0-.506.854l-.837 2.87a.5.5 0 0 0 .62.62l2.87-.837a2 2 0 0 0 .854-.506z"/><circle cx="10" cy="8" r="5"/></symbol>
  <symbol id="i-log-out" viewBox="0 0 24 24"><path d="m16 17 5-5-5-5"/><path d="M21 12H9"/><path d="M9 21H5a2 2 0 0 1-2-2V5a2 2 0 0 1 2-2h4"/></symbol>
</svg>
